<svg width="32" height="32" viewBox="0 0 32 32" fill="none" xmlns="http://www.w3.org/2000/svg">
<path d="M5.9531 9.04299L9.3242 10.9167L8.67576 12.0834L5.16665 10.1328V21.5638L15.3333 27.3529V22.5H16.6666V27.3529L26.8333 21.5638V10.1328L23.3242 12.0834L22.6758 10.9167L26.0456 9.04299L16 4.2383L5.9531 9.04299ZM28.1666 22.3399L27.8294 22.5313L16 29.2669L4.17055 22.5313L3.83331 22.3399V8.57945L15.7122 2.89846L16 2.76044L16.2877 2.89846L28.1666 8.57945V22.3399Z" fill="black"/>
<path d="M20.3839 16.6032L23 20.4127L22.0924 21L19.8001 17.6621H12.1434L9.91395 20.9948L9 20.4178L11.5501 16.6032H20.3839Z" fill="black"/>
<path d="M16.0016 8C18.0345 8 19.6829 9.6002 19.6829 11.5737C19.6829 13.5471 18.0345 15.1473 16.0016 15.1473C13.9679 15.1473 12.3202 13.5471 12.3202 11.5737C12.3202 9.6002 13.9679 8 16.0016 8ZM16.0016 9.05886C14.5704 9.05886 13.411 10.1848 13.411 11.5737C13.411 12.9625 14.5704 14.0885 16.0016 14.0885C17.4321 14.0885 18.5922 12.9623 18.5922 11.5737C18.5922 10.185 17.4321 9.05886 16.0016 9.05886Z" fill="black"/>
</svg>
